# xmcd CD database file
#
# Track frame offsets:
#	150
#	16497
#	32709
#	44096
#	56660
#	68096
#	91226
#	114300
#	131943
#	143921
#	161067
#	177342
#	190904
#	207188
#
# Disc length: 2959 seconds
#
# Revision: 0
# Processed by: cddbd v1.5.1PL0 Copyright (c) Steve Scherf et al.
# Submitted via: CDex 1.60beta1
#
DISCID=cd0b8d0e
DTITLE=Desert Voices - Lush Life: A Choral Tribute to the Life and Music of Billy Strayhorn
DYEAR=2000
DGENRE=Jazz
TTITLE0=Take The "A" Train
TTITLE1=A Flower Is A Lovesome Thing
TTITLE2=Passion Flower
TTITLE3=My Little Brown Book
TTITLE4=Satin Doll
TTITLE5=The Intimacy Of The Blues
TTITLE6=Lush Life
TTITLE7=Day Dream
TTITLE8=Maybe
TTITLE9=Something To Live For
TTITLE10=Multicolored Blue
TTITLE11=Love Like This Can't Last
TTITLE12=You're The One
TTITLE13=I'm Checkin' Out Goombye
EXTD=YEAR: 2000
EXTT0=
EXTT1=
EXTT2=
EXTT3=
EXTT4=
EXTT5=
EXTT6=
EXTT7=
EXTT8=
EXTT9=
EXTT10=
EXTT11=
EXTT12=
EXTT13=
PLAYORDER=
